# xmcd
#
# Track frame offsets:
#	150
#	16482
#	34987
#	52342
#	66000
#	82097
#	98662
#	118935
#	137272
#	155342
#	170200
#
# Disc length: 2384 seconds
#
# Revision: 1
# Processed by: cddbd v1.5.1PL0 Copyright (c) Steve Scherf et al.
# Submitted via: CDex 1.50Beta5
#
DISCID=98094e0b
DTITLE=山本達彦 - I LOVE YOU SO
DYEAR=1997
DGENRE=
TTITLE0=Midnight Harbor
TTITLE1=Last Show
TTITLE2=Magic
TTITLE3=Mrs.Snow
TTITLE4=Sunset Blue
TTITLE5=I LOVE YOU SO
TTITLE6=24-2689
TTITLE7=Marianne
TTITLE8=Man+Woman=100%
TTITLE9=摩天楼ブルース
TTITLE10=Good Night Sweet Heart
EXTD=
EXTT0=
EXTT1=
EXTT2=
EXTT3=
EXTT4=
EXTT5=
EXTT6=
EXTT7=
EXTT8=
EXTT9=
EXTT10=
PLAYORDER=
